<svg xmlns="http://www.w3.org/2000/svg" version="1.1" xmlns:xlink="http://www.w3.org/1999/xlink" xmlns:svgjs="http://svgjs.dev/svgjs" width="100%" height="100%" viewBox="0 0 1000 600"><rect width="1000" height="600" x="0" y="0" fill="&#9;# 000000"/><g><rect width="333.3333333333333" height="333.3333333333333" rx="13.333333333333334" ry="13.333333333333334" y="336.0058704943807" fill="&#9;# 696969" transform="matrix(0.3983637003526919,0,0,0.3983637003526919,0,99.75351721109055)" x="313.78369140625006"/><path d="M426.46694179740683 577.6725471108622L317.4546867273708 513.0726922545446L317.4546867273708 492.3084531935854L426.46694179740683 427.67254931112024L426.46694179740683 449.4822101303569L336.9211608470201 501.64515096578754L336.9211608470201 503.699945456195L426.46694179740683 555.8989353177731L426.46694179740683 577.6725471108622ZM534.4337751091655 577.6725471108622L534.4337751091655 555.8989353177731L623.9795560595521 503.699945456195L623.9795560595521 501.64515096578754L534.4337751091655 449.4822101303569L534.4337751091655 427.67254931112024L643.4460301792014 492.3084531935854L643.4460301792014 513.0726922545446L534.4337751091655 577.6725471108622Z " fill="&#9;#FFFFFF" transform="matrix(0.3983637003526919,0,0,0.3983637003526919,0,99.75351721109055)"/><path d="M799.8520468241408 575.1908276027551L778.6419658370456 575.1908276027551L730.450353254122 430.1542738052857L749.149853226418 430.1542738052857L773.0436587465742 503.3074102709811L789.0305769327657 557.7321895113369L790.0694380423377 557.7321895113369L806.4892150241841 503.3074102709811L830.5850213156459 430.1542738052857L848.678518974025 430.1542738052857L799.8520468241408 575.1908276027551ZM951.5257688216535 575.1908276027551L942.1760188355055 575.1908276027551Q932.8262688493575 575.1908276027551 928.7573961702004 570.1985228262009Q924.7173807440871 565.2062180496464 923.678519634515 557.7321895113369L923.678519634515 557.7321895113369L922.6396585249431 557.7321895113369Q919.1190736536157 567.7167990644454 911.0101855483454 572.7091038409998Q902.901297443075 577.6725513645105 891.6758260090886 577.6725513645105L891.6758260090886 577.6725513645105Q874.6500467133252 577.6725513645105 865.1848677150024 568.9576609453233Q855.7485459697233 560.2427705261357 855.7485459697233 545.2658561964727L855.7485459697233 545.2658561964727Q855.7485459697233 530.1157983485476 866.8585883915351 522.0069102432772Q877.9686308133469 513.8980221380068 901.4584347908916 513.8980221380068L901.4584347908916 513.8980221380068L922.6396585249431 513.8980221380068L922.6396585249431 503.3074102709811Q922.6396585249431 491.87993806568903 916.406491867511 485.8487721795627Q910.173325210079 479.8176062934363 897.3029903526036 479.8176062934363L897.3029903526036 479.8176062934363Q887.5203815708005 479.8176062934363 880.9697851298881 484.17505150303003Q874.4480459420195 488.56135396566737 870.0617434793821 495.8333817326714L870.0617434793821 495.8333817326714L860.105991179317 486.4836317465234Q864.4634363889107 477.7398840742923 874.0151871463645 471.62214642903496Q883.5669379038181 465.47555153073387 898.1109934378263 465.47555153073387L898.1109934378263 465.47555153073387Q917.6473537483887 465.47555153073387 928.4688236397639 475.0561595412313Q939.2614362780952 484.607910298685 939.2614362780952 501.63368959444847L939.2614362780952 501.63368959444847L939.2614362780952 560.6467720687472L951.5257688216535 560.6467720687472L951.5257688216535 575.1908276027551ZM894.3884077951933 563.5613546261575L894.3884077951933 563.5613546261575Q900.6215744526253 563.5613546261575 905.8158800004853 562.0896347209305Q911.0101855483454 560.6467720687472 914.7327711909784 557.9341902826425Q918.484214086655 555.2504657495815 920.5619363057991 551.7010236252104Q922.6396585249431 548.180438753883 922.6396585249431 544.024994315595L922.6396585249431 544.024994315595L922.6396585249431 526.364355452871L900.6215744526253 526.364355452871Q886.2795196899228 526.364355452871 879.7289232490106 530.519799891159Q873.1783268080982 534.675244329447 873.1783268080982 542.5821316634117L873.1783268080982 542.5821316634117L873.1783268080982 546.9395768730053Q873.1783268080982 554.8176069539264 878.8920629107441 559.2039094165639Q884.6057990133902 563.5613546261575 894.3884077951933 563.5613546261575ZM991.8393513236562 575.1908276027551L975.2175735705041 575.1908276027551L975.2175735705041 467.98613254553294L991.8393513236562 467.98613254553294L991.8393513236562 485.4447706369513L992.6473544088789 485.4447706369513Q996.6007980758612 476.29702142210897 1003.7862540837342 470.90071510294325Q1010.9428528385637 465.47555153073387 1023.0051846108163 465.47555153073387L1023.0051846108163 465.47555153073387Q1039.6269623639682 465.47555153073387 1049.2652848805533 476.1815924099343Q1058.9324646501814 486.88763328913467 1058.9324646501814 506.42399359969716L1058.9324646501814 506.42399359969716L1058.9324646501814 575.1908276027551L1042.3106868970294 575.1908276027551L1042.3106868970294 509.33857615710747Q1042.3106868970294 480.452465860397 1018.012879834262 480.452465860397L1018.012879834262 480.452465860397Q1013.0205750577076 480.452465860397 1008.3457000646335 481.6933277412747Q1003.6708250715595 482.93418962215236 999.9193821758828 485.4447706369513Q996.1967965332498 487.9264943987067 994.0036453019312 491.76450905351436Q991.8393513236562 495.60252370832205 991.8393513236562 500.7968292561821L991.8393513236562 500.7968292561821L991.8393513236562 575.1908276027551ZM1133.5284637680602 577.6725513645105L1133.5284637680602 577.6725513645105Q1122.5049931053795 577.6725513645105 1113.6746736740174 573.7479649505718Q1104.8443542426553 569.7945212835895 1098.5246158260925 562.4070645044108Q1092.1760201564857 555.0484649782757 1088.7420070442895 544.7464256416868Q1085.3368511851368 534.4732435581413 1085.3368511851368 521.5740514476222L1085.3368511851368 521.5740514476222Q1085.3368511851368 508.9057173614525 1088.7420070442895 498.5171062657324Q1092.1760201564857 488.12849517001234 1098.5246158260925 480.7698956438773Q1104.8443542426553 473.3824388646986 1113.6746736740174 469.42899519771623Q1122.5049931053795 465.47555153073387 1133.5284637680602 465.47555153073387L1133.5284637680602 465.47555153073387Q1144.3210764063915 465.47555153073387 1152.8628233073168 469.42899519771623Q1161.3757129551987 473.3824388646986 1167.4068788413251 480.33703684822234Q1173.4091874744076 487.291634831746 1176.6411998152985 496.8722428422434Q1179.8732121561893 506.42399359969716 1179.8732121561893 517.8514658049892L1179.8732121561893 517.8514658049892L1179.8732121561893 525.7294958859102L1102.7666320235116 525.7294958859102L1102.7666320235116 530.7218006624646Q1102.7666320235116 537.5898268868573 1104.9597832548302 543.5055637608091Q1107.1529344861488 549.4213006347607 1111.192949912262 553.7787458443545Q1115.2329653383754 558.1650483069918 1121.177559465371 560.6467720687472Q1127.0932963393225 563.1284958305025 1134.5673248776325 563.1284958305025L1134.5673248776325 563.1284958305025Q1144.7539352020467 563.1284958305025 1152.3433927525311 558.3670490782974Q1159.9039930499716 553.5767450730488 1164.0594374882598 544.6598538825557L1164.0594374882598 544.6598538825557L1175.919768489207 553.1727435304374Q1170.725462941347 564.1673569400746 1159.7019922786662 570.9199541522925Q1148.707378869029 577.6725513645105 1133.5284637680602 577.6725513645105ZM1133.5284637680602 479.41360475082496L1133.5284637680602 479.41360475082496Q1126.6604375436677 479.41360475082496 1121.0621304531965 481.8087567534493Q1115.4638233627247 484.17505150303003 1111.394950683568 488.56135396566737Q1107.3549352574546 492.91879917526103 1105.0752122670046 498.8345360492128Q1102.7666320235116 504.75027292316446 1102.7666320235116 511.8202999188628L1102.7666320235116 511.8202999188628L1102.7666320235116 513.2631625710462L1161.9817152691157 513.2631625710462L1161.9817152691157 510.9834395805965Q1161.9817152691157 496.6413848178941 1154.190256947326 488.04192341088134Q1146.3987986255356 479.41360475082496 1133.5284637680602 479.41360475082496ZM1239.492296944405 577.6725513645105L1239.492296944405 577.6725513645105Q1224.5442398677856 577.6725513645105 1214.4442013025023 571.9588152618645Q1204.3730199902625 566.2450791592184 1197.1009922232583 556.6933284017648L1197.1009922232583 556.6933284017648L1208.9613232242054 547.141577644311Q1215.1944898816373 555.0484649782757 1222.8705191912527 559.2904811756948Q1230.546548500868 563.5613546261575 1240.7331588252828 563.5613546261575L1240.7331588252828 563.5613546261575Q1251.3237706923082 563.5613546261575 1257.2683648193038 558.9730513922145Q1263.1841016932553 554.4136054113151 1263.1841016932553 546.1027165347391L1263.1841016932553 546.1027165347391Q1263.1841016932553 539.869549877307 1259.115229014098 535.3966756555387Q1255.0752135879852 530.9238014337702 1244.4846017209593 529.2789380102813L1244.4846017209593 529.2789380102813L1235.9717120730775 528.0380761294036Q1228.468826281724 526.9992150198316 1222.235659624292 524.8060637885129Q1216.0024929668602 522.6129125571942 1211.327617973786 518.9768986736922Q1206.652742980712 515.3408847901901 1204.0555902067822 509.9445784710245Q1201.458437432852 504.5482721518588 1201.458437432852 497.0742436135491L1201.458437432852 497.0742436135491Q1201.458437432852 489.16735627958434 1204.3730199902625 483.25161940563265Q1207.2876025476726 477.33588253168097 1212.3664790833582 473.3824388646986Q1217.4742128720873 469.42899519771623 1224.5442398677856 467.4667019907469Q1231.5854096104404 465.47555153073387 1239.6942977157105 465.47555153073387L1239.6942977157105 465.47555153073387Q1252.7954905975353 465.47555153073387 1261.6258100288974 470.06385476467693Q1270.4561294602595 474.6233007455763 1277.0932976603026 482.7321888508467L1277.0932976603026 482.7321888508467L1266.0986842506654 492.7167984039554Q1262.5492421262948 487.72449362740105 1255.7100731549458 483.655620948244Q1248.842046930553 479.61560552213064 1238.4534358348328 479.61560552213064L1238.4534358348328 479.61560552213064Q1228.0648247391127 479.61560552213064 1222.7550901790783 484.08847974389903Q1217.4742128720873 488.56135396566737 1217.4742128720873 496.23738327528275L1217.4742128720873 496.23738327528275Q1217.4742128720873 504.1442706092475 1222.7550901790783 507.66485548057483Q1228.0648247391127 511.1854403519022 1238.0494342922216 512.8591610284348L1238.0494342922216 512.8591610284348L1246.3603231687975 514.1000229093124Q1264.2229628028272 516.8126046954171 1271.6969913411372 524.4020622459016Q1279.1710198794467 531.9626625433423 1279.1710198794467 544.2269950869006L1279.1710198794467 544.2269950869006Q1279.1710198794467 559.8099117304807 1268.5804080124212 568.7556601740174Q1257.9897961453953 577.6725513645105 1239.492296944405 577.6725513645105ZM1339.424964234623 577.6725513645105L1339.424964234623 577.6725513645105Q1324.4769071580035 577.6725513645105 1314.4057258457642 571.9588152618645Q1304.3056872804805 566.2450791592184 1297.0336595134768 556.6933284017648L1297.0336595134768 556.6933284017648L1308.8939905144234 547.141577644311Q1315.1271571718557 555.0484649782757 1322.8031864814711 559.2904811756948Q1330.50807304413 563.5613546261575 1340.6658261155007 563.5613546261575L1340.6658261155007 563.5613546261575Q1351.2852952355702 563.5613546261575 1357.2010321095222 558.9730513922145Q1363.1167689834738 554.4136054113151 1363.1167689834738 546.1027165347391L1363.1167689834738 546.1027165347391Q1363.1167689834738 539.869549877307 1359.0767535573605 535.3966756555387Q1355.0078808782032 530.9238014337702 1344.4172690111777 529.2789380102813L1344.4172690111777 529.2789380102813L1335.904379363296 528.0380761294036Q1328.430350824986 526.9992150198316 1322.197184167554 524.8060637885129Q1315.9640175101222 522.6129125571942 1311.2891425170478 518.9768986736922Q1306.614267523974 515.3408847901901 1304.0171147500437 509.9445784710245Q1301.4199619761139 504.5482721518588 1301.4199619761139 497.0742436135491L1301.4199619761139 497.0742436135491Q1301.4199619761139 489.16735627958434 1304.3056872804805 483.25161940563265Q1307.220269837891 477.33588253168097 1312.32800362662 473.3824388646986Q1317.4068801623052 469.42899519771623 1324.4769071580035 467.4667019907469Q1331.5469341537023 465.47555153073387 1339.626965005929 465.47555153073387L1339.626965005929 465.47555153073387Q1352.7281578877537 465.47555153073387 1361.5584773191158 470.06385476467693Q1370.3887967504775 474.6233007455763 1377.025964950521 482.7321888508467L1377.025964950521 482.7321888508467L1366.0313515408839 492.7167984039554Q1362.4819094165132 487.72449362740105 1355.6427404451638 483.655620948244Q1348.7747142207713 479.61560552213064 1338.3861031250512 479.61560552213064L1338.3861031250512 479.61560552213064Q1327.9974920293312 479.61560552213064 1322.7166147223402 484.08847974389903Q1317.4068801623052 488.56135396566737 1317.4068801623052 496.23738327528275L1317.4068801623052 496.23738327528275Q1317.4068801623052 504.1442706092475 1322.7166147223402 507.66485548057483Q1327.9974920293312 511.1854403519022 1337.98210158244 512.8591610284348L1337.98210158244 512.8591610284348L1346.292990459016 514.1000229093124Q1364.1556300930456 516.8126046954171 1371.6296586313556 524.4020622459016Q1379.1036871696651 531.9626625433423 1379.1036871696651 544.2269950869006L1379.1036871696651 544.2269950869006Q1379.1036871696651 559.8099117304807 1368.5130753026397 568.7556601740174Q1357.9224634356137 577.6725513645105 1339.424964234623 577.6725513645105ZM1495.686989466079 575.1908276027551L1486.3372394799312 575.1908276027551Q1476.987489493783 575.1908276027551 1472.9186168146261 570.1985228262009Q1468.8786013885128 565.2062180496464 1467.8397402789406 557.7321895113369L1467.8397402789406 557.7321895113369L1466.8008791693687 557.7321895113369Q1463.2514370449976 567.7167990644454 1455.171406192771 572.7091038409998Q1447.0625180875004 577.6725513645105 1435.8370466535143 577.6725513645105L1435.8370466535143 577.6725513645105Q1418.8112673577507 577.6725513645105 1409.346088359428 568.9576609453233Q1399.8809093611053 560.2427705261357 1399.8809093611053 545.2658561964727L1399.8809093611053 545.2658561964727Q1399.8809093611053 530.1157983485476 1411.0198090359604 522.0069102432772Q1422.1298514577725 513.8980221380068 1445.5907981822734 513.8980221380068L1445.5907981822734 513.8980221380068L1466.8008791693687 513.8980221380068L1466.8008791693687 503.3074102709811Q1466.8008791693687 491.87993806568903 1460.5677125119364 485.8487721795627Q1454.3345458545045 479.8176062934363 1441.4353537439856 479.8176062934363L1441.4353537439856 479.8176062934363Q1431.6816022152261 479.8176062934363 1425.1310057743135 484.17505150303003Q1418.5804093334013 488.56135396566737 1414.2229641238077 495.8333817326714L1414.2229641238077 495.8333817326714L1404.2672118237424 486.4836317465234Q1408.624657033336 477.7398840742923 1418.17640779079 471.62214642903496Q1427.7281585482438 465.47555153073387 1442.272214082252 465.47555153073387L1442.272214082252 465.47555153073387Q1461.808574392814 465.47555153073387 1472.6011870311459 475.0561595412313Q1483.4226569225207 484.607910298685 1483.4226569225207 501.63368959444847L1483.4226569225207 501.63368959444847L1483.4226569225207 560.6467720687472L1495.686989466079 560.6467720687472L1495.686989466079 575.1908276027551ZM1438.5496284396186 563.5613546261575L1438.5496284396186 563.5613546261575Q1444.782795097051 563.5613546261575 1449.977100644911 562.0896347209305Q1455.171406192771 560.6467720687472 1458.893991835404 557.9341902826425Q1462.6454347310805 555.2504657495815 1464.7231569502246 551.7010236252104Q1466.8008791693687 548.180438753883 1466.8008791693687 544.024994315595L1466.8008791693687 544.024994315595L1466.8008791693687 526.364355452871L1444.782795097051 526.364355452871Q1430.4407403343484 526.364355452871 1423.8901438934363 530.519799891159Q1417.3395474525237 534.675244329447 1417.3395474525237 542.5821316634117L1417.3395474525237 542.5821316634117L1417.3395474525237 546.9395768730053Q1417.3395474525237 554.8176069539264 1423.0532835551699 559.2039094165639Q1428.7670196578156 563.5613546261575 1438.5496284396186 563.5613546261575ZM1663.982489216744 575.1908276027551L1663.982489216744 554.0096038687037L1663.3476296497834 554.0096038687037Q1660.6350478636787 564.1673569400746 1650.1598650088276 570.9199541522925Q1639.655824900933 577.6725513645105 1623.0340471477807 577.6725513645105L1623.0340471477807 577.6725513645105Q1609.7308534946505 577.6725513645105 1598.620811072839 572.795675600131Q1587.5107686510269 567.9187998357512 1579.6038813170621 558.4536208374284Q1571.7258512361414 549.0172990921494 1567.2529770143728 534.9926741129273Q1562.7801027926043 520.9680491337052 1562.7801027926043 502.67255070402047L1562.7801027926043 502.67255070402047Q1562.7801027926043 484.607910298685 1567.1375480021984 470.5832853194629Q1571.5238504648355 456.5586603402408 1579.6038813170621 447.0934813419181Q1587.7127694223327 437.6571595966391 1599.1402416276246 432.6648548200847Q1610.567713832917 427.67255004353035 1624.5057670530077 427.67255004353035L1624.5057670530077 427.67255004353035Q1644.0132701105267 427.67255004353035 1657.1144629923515 436.38744046271773Q1670.2156558741763 445.1311881349488 1677.256825616831 459.4732428976512L1677.256825616831 459.4732428976512L1662.9436281071721 468.18813331683856Q1657.951323330618 456.5586603402408 1648.0821427896835 449.8926348871538Q1638.2129622487496 443.2554666871104 1624.5057670530077 443.2554666871104L1624.5057670530077 443.2554666871104Q1614.9251590425106 443.2554666871104 1607.0471289615894 446.68947979930675Q1599.1402416276246 450.1234929115031 1593.426505524979 456.3566595689352Q1587.7127694223327 462.5898262263672 1584.5961860936168 471.3047166455546Q1581.4796027649008 480.019607064742 1581.4796027649008 490.84107695611704L1581.4796027649008 490.84107695611704L1581.4796027649008 514.3020236806182Q1581.4796027649008 525.1234935719933 1584.5961860936168 533.9538130033552Q1587.7127694223327 542.7841324347173 1593.426505524979 549.0172990921494Q1599.1402416276246 555.2504657495815 1607.4511305042006 558.6844788617777Q1615.762019380777 562.0896347209305 1626.1506304764966 562.0896347209305L1626.1506304764966 562.0896347209305Q1633.6246590148066 562.0896347209305 1640.3772562270246 560.127341513961Q1647.1298534392427 558.1650483069918 1652.2375872279717 554.2116046400095Q1657.3164637636569 550.2581609730271 1660.2310463210674 544.3424240990753Q1663.1456288784775 538.4266872251237 1663.1456288784775 530.3177991198534L1663.1456288784775 530.3177991198534L1663.1456288784775 515.9757443571509L1631.1429352530513 515.9757443571509L1631.1429352530513 500.5948284848764L1680.1714081742412 500.5948284848764L1680.1714081742412 575.1908276027551L1663.982489216744 575.1908276027551ZM1753.3245446399364 577.6725513645105L1753.3245446399364 577.6725513645105Q1742.5030747485616 577.6725513645105 1733.5861835580686 573.7479649505718Q1724.6404351145316 569.7945212835895 1718.2918394449248 562.4070645044108Q1711.972101028362 555.0484649782757 1708.4226589039909 544.7464256416868Q1704.9020740326637 534.4732435581413 1704.9020740326637 521.5740514476222L1704.9020740326637 521.5740514476222Q1704.9020740326637 508.9057173614525 1708.4226589039909 498.5171062657324Q1711.972101028362 488.12849517001234 1718.2918394449248 480.7698956438773Q1724.6404351145316 473.3824388646986 1733.5861835580686 469.42899519771623Q1742.5030747485616 465.47555153073387 1753.3245446399364 465.47555153073387L1753.3245446399364 465.47555153073387Q1764.1171572782682 465.47555153073387 1772.9474767096303 469.42899519771623Q1781.777796140992 473.3824388646986 1788.2129635697302 480.7698956438773Q1794.6481309984679 488.12849517001234 1798.1975731228385 498.5171062657324Q1801.7181579941662 508.9057173614525 1801.7181579941662 521.5740514476222L1801.7181579941662 521.5740514476222Q1801.7181579941662 534.4732435581413 1798.1975731228385 544.7464256416868Q1794.6481309984679 555.0484649782757 1788.2129635697302 562.4070645044108Q1781.777796140992 569.7945212835895 1772.9474767096303 573.7479649505718Q1764.1171572782682 577.6725513645105 1753.3245446399364 577.6725513645105ZM1753.3245446399364 562.9264950591969L1753.3245446399364 562.9264950591969Q1766.829739064373 562.9264950591969 1775.3426287122543 554.6156061826207Q1783.855518360136 546.3047173060447 1783.855518360136 529.2789380102813L1783.855518360136 529.2789380102813L1783.855518360136 513.8980221380068Q1783.855518360136 496.8722428422434 1775.3426287122543 488.56135396566737Q1766.829739064373 480.25046508909134 1753.3245446399364 480.25046508909134L1753.3245446399364 480.25046508909134Q1739.8193502155004 480.25046508909134 1731.2776033145751 488.56135396566737Q1722.7647136666933 496.8722428422434 1722.7647136666933 513.8980221380068L1722.7647136666933 513.8980221380068L1722.7647136666933 529.2789380102813Q1722.7647136666933 546.3047173060447 1731.2776033145751 554.6156061826207Q1739.8193502155004 562.9264950591969 1753.3245446399364 562.9264950591969ZM1845.7831833918453 575.1908276027551L1829.161405638693 575.1908276027551L1829.161405638693 467.98613254553294L1845.7831833918453 467.98613254553294L1845.7831833918453 485.4447706369513L1846.5911864770678 485.4447706369513Q1848.466907924906 481.28932619866333 1850.8620599275305 477.6533123151613Q1853.2572119301549 474.0172984316593 1856.691225042351 471.3047166455546Q1860.0963809015038 468.5921348594499 1864.6846841354472 467.0338431950919Q1869.2441301163462 465.47555153073387 1875.477296773778 465.47555153073387L1875.477296773778 465.47555153073387Q1886.067908640804 465.47555153073387 1895.013657084341 470.5832853194629Q1903.9594055278776 475.66216185514827 1908.3168507374712 487.291634831746L1908.3168507374712 487.291634831746L1908.7208522800825 487.291634831746Q1911.635434837493 478.57674441255864 1919.6288939305887 472.02614797164625Q1927.6223530236844 465.47555153073387 1941.3584054724697 465.47555153073387L1941.3584054724697 465.47555153073387Q1957.7493252012723 465.47555153073387 1967.0125034282896 476.1815924099343Q1976.246824402263 486.88763328913467 1976.246824402263 506.42399359969716L1976.246824402263 506.42399359969716L1976.246824402263 575.1908276027551L1959.625046649111 575.1908276027551L1959.625046649111 509.33857615710747Q1959.625046649111 494.9965213944051 1954.0267395586393 487.72449362740105Q1948.3995752151245 480.452465860397 1936.1640999246097 480.452465860397L1936.1640999246097 480.452465860397Q1931.1717951480555 480.452465860397 1926.698920926287 481.6933277412747Q1922.2260467045185 482.93418962215236 1918.7054618331913 485.4447706369513Q1915.1560197088202 487.9264943987067 1913.078297489676 491.76450905351436Q1911.0005752705324 495.60252370832205 1911.0005752705324 500.7968292561821L1911.0005752705324 500.7968292561821L1911.0005752705324 575.1908276027551L1894.37879751738 575.1908276027551L1894.37879751738 509.33857615710747Q1894.37879751738 494.9965213944051 1888.7804904269087 487.72449362740105Q1883.1821833364374 480.452465860397 1871.3218523354903 480.452465860397L1871.3218523354903 480.452465860397Q1866.3295475589362 480.452465860397 1861.7701015780367 481.6933277412747Q1857.2106555971372 482.93418962215236 1853.6612134727661 485.4447706369513Q1850.140628601439 487.9264943987067 1847.9474773701204 491.76450905351436Q1845.7831833918453 495.60252370832205 1845.7831833918453 500.7968292561821L1845.7831833918453 500.7968292561821L1845.7831833918453 575.1908276027551ZM2050.842823520142 577.6725513645105L2050.842823520142 577.6725513645105Q2039.8193528574611 577.6725513645105 2030.989033426099 573.7479649505718Q2022.158713994737 569.7945212835895 2015.838975578174 562.4070645044108Q2009.4903799085673 555.0484649782757 2006.056366796371 544.7464256416868Q2002.6512109372184 534.4732435581413 2002.6512109372184 521.5740514476222L2002.6512109372184 521.5740514476222Q2002.6512109372184 508.9057173614525 2006.056366796371 498.5171062657324Q2009.4903799085673 488.12849517001234 2015.838975578174 480.7698956438773Q2022.158713994737 473.3824388646986 2030.989033426099 469.42899519771623Q2039.8193528574611 465.47555153073387 2050.842823520142 465.47555153073387L2050.842823520142 465.47555153073387Q2061.6354361584727 465.47555153073387 2070.177183059398 469.42899519771623Q2078.69007270728 473.3824388646986 2084.7212385934063 480.33703684822234Q2090.7235472264892 487.291634831746 2093.95555956738 496.8722428422434Q2097.18757190827 506.42399359969716 2097.18757190827 517.8514658049892L2097.18757190827 517.8514658049892L2097.18757190827 525.7294958859102L2020.0809917755928 525.7294958859102L2020.0809917755928 530.7218006624646Q2020.0809917755928 537.5898268868573 2022.2741430069113 543.5055637608091Q2024.4672942382304 549.4213006347607 2028.5073096643437 553.7787458443545Q2032.547325090457 558.1650483069918 2038.4919192174525 560.6467720687472Q2044.407656091404 563.1284958305025 2051.881684629713 563.1284958305025L2051.881684629713 563.1284958305025Q2062.068294954128 563.1284958305025 2069.6577525046123 558.3670490782974Q2077.2183528020532 553.5767450730488 2081.3737972403414 544.6598538825557L2081.3737972403414 544.6598538825557L2093.234128241288 553.1727435304374Q2088.0398226934285 564.1673569400746 2077.016352030747 570.9199541522925Q2066.0217386211107 577.6725513645105 2050.842823520142 577.6725513645105ZM2050.842823520142 479.41360475082496L2050.842823520142 479.41360475082496Q2043.9747972957489 479.41360475082496 2038.3764902052776 481.8087567534493Q2032.7781831148063 484.17505150303003 2028.7093104356495 488.56135396566737Q2024.6692950095357 492.91879917526103 2022.3895720190862 498.8345360492128Q2020.0809917755928 504.75027292316446 2020.0809917755928 511.8202999188628L2020.0809917755928 511.8202999188628L2020.0809917755928 513.2631625710462L2079.296075021197 513.2631625710462L2079.296075021197 510.9834395805965Q2079.296075021197 496.6413848178941 2071.504616699407 488.04192341088134Q2063.713158377617 479.41360475082496 2050.842823520142 479.41360475082496ZM2156.8066566964862 577.6725513645105L2156.8066566964862 577.6725513645105Q2141.858599619867 577.6725513645105 2131.758561054583 571.9588152618645Q2121.687379742343 566.2450791592184 2114.415351975339 556.6933284017648L2114.415351975339 556.6933284017648L2126.2756829762866 547.141577644311Q2132.5088496337185 555.0484649782757 2140.1848789433343 559.2904811756948Q2147.8609082529492 563.5613546261575 2158.047518577364 563.5613546261575L2158.047518577364 563.5613546261575Q2168.6381304443894 563.5613546261575 2174.5827245713845 558.9730513922145Q2180.498461445337 554.4136054113151 2180.498461445337 546.1027165347391L2180.498461445337 546.1027165347391Q2180.498461445337 539.869549877307 2176.429588766179 535.3966756555387Q2172.389573340066 530.9238014337702 2161.7989614730404 529.2789380102813L2161.7989614730404 529.2789380102813L2153.2860718251586 528.0380761294036Q2145.7831860338056 526.9992150198316 2139.5500193763737 524.8060637885129Q2133.316852718941 522.6129125571942 2128.641977725867 518.9768986736922Q2123.967102732793 515.3408847901901 2121.369949958863 509.9445784710245Q2118.7727971849336 504.5482721518588 2118.7727971849336 497.0742436135491L2118.7727971849336 497.0742436135491Q2118.7727971849336 489.16735627958434 2121.687379742343 483.25161940563265Q2124.6019622997537 477.33588253168097 2129.6808388354393 473.3824388646986Q2134.7885726241684 469.42899519771623 2141.858599619867 467.4667019907469Q2148.8997693625215 465.47555153073387 2157.0086574677916 465.47555153073387L2157.0086574677916 465.47555153073387Q2170.109850349617 465.47555153073387 2178.940169780978 470.06385476467693Q2187.77048921234 474.6233007455763 2194.4076574123837 482.7321888508467L2194.4076574123837 482.7321888508467L2183.4130440027466 492.7167984039554Q2179.8636018783754 487.72449362740105 2173.0244329070265 483.655620948244Q2166.156406682634 479.61560552213064 2155.767795586914 479.61560552213064L2155.767795586914 479.61560552213064Q2145.379184491194 479.61560552213064 2140.0694499311594 484.08847974389903Q2134.7885726241684 488.56135396566737 2134.7885726241684 496.23738327528275L2134.7885726241684 496.23738327528275Q2134.7885726241684 504.1442706092475 2140.0694499311594 507.66485548057483Q2145.379184491194 511.1854403519022 2155.363794044303 512.8591610284348L2155.363794044303 512.8591610284348L2163.6746829208787 514.1000229093124Q2181.5373225549083 516.8126046954171 2189.0113510932188 524.4020622459016Q2196.4853796315283 531.9626625433423 2196.4853796315283 544.2269950869006L2196.4853796315283 544.2269950869006Q2196.4853796315283 559.8099117304807 2185.894767764502 568.7556601740174Q2175.3041558974764 577.6725513645105 2156.8066566964862 577.6725513645105Z " fill="&#9;#FFFFFF" transform="matrix(0.3983637003526919,0,0,0.3983637003526919,0,99.75351721109055)"/></g></svg>